<mxfile host="app.diagrams.net" agent="Mozilla/5.0 (Windows NT 10.0; Win64; x64) AppleWebKit/537.36 (KHTML, like Gecko) Chrome/140.0.0.0 Safari/537.36 Edg/140.0.0.0" version="28.2.5">
  <diagram name="페이지-1" id="DFIzSHCukZUBh9z1uaAU">
    <mxGraphModel dx="858" dy="463" grid="1" gridSize="10" guides="1" tooltips="1" connect="1" arrows="1" fold="1" page="1" pageScale="1" pageWidth="827" pageHeight="1169" math="0" shadow="0">
      <root>
        <mxCell id="0" />
        <mxCell id="1" parent="0" />
        <mxCell id="xR2DWlL20hdml4r3ErCJ-1" value="&lt;div&gt;&lt;font data-font-src=&quot;https://cdn.jsdelivr.net/gh/Project-Noonnu/noonfonts_2107@1.1/Pretendard-Regular.woff&quot; face=&quot;Pretendard&quot;&gt;&lt;br&gt;&lt;/font&gt;&lt;/div&gt;&lt;div&gt;&lt;font data-font-src=&quot;https://cdn.jsdelivr.net/gh/Project-Noonnu/noonfonts_2107@1.1/Pretendard-Regular.woff&quot; face=&quot;Pretendard&quot;&gt;&lt;br&gt;&lt;/font&gt;&lt;/div&gt;&lt;div&gt;&lt;font data-font-src=&quot;https://cdn.jsdelivr.net/gh/Project-Noonnu/noonfonts_2107@1.1/Pretendard-Regular.woff&quot; face=&quot;Pretendard&quot;&gt;&lt;br&gt;&lt;/font&gt;&lt;/div&gt;&lt;div&gt;&lt;font data-font-src=&quot;https://cdn.jsdelivr.net/gh/Project-Noonnu/noonfonts_2107@1.1/Pretendard-Regular.woff&quot; face=&quot;Pretendard&quot;&gt;&lt;br&gt;&lt;/font&gt;&lt;/div&gt;&lt;div&gt;&lt;font data-font-src=&quot;https://cdn.jsdelivr.net/gh/Project-Noonnu/noonfonts_2107@1.1/Pretendard-Regular.woff&quot; face=&quot;Pretendard&quot;&gt;&lt;br&gt;&lt;/font&gt;&lt;/div&gt;&lt;div&gt;&lt;font data-font-src=&quot;https://cdn.jsdelivr.net/gh/Project-Noonnu/noonfonts_2107@1.1/Pretendard-Regular.woff&quot; face=&quot;Pretendard&quot;&gt;&lt;br&gt;&lt;/font&gt;&lt;/div&gt;&lt;div&gt;&lt;font data-font-src=&quot;https://cdn.jsdelivr.net/gh/Project-Noonnu/noonfonts_2107@1.1/Pretendard-Regular.woff&quot; face=&quot;Pretendard&quot;&gt;&lt;br&gt;&lt;/font&gt;&lt;/div&gt;&lt;div&gt;&lt;font data-font-src=&quot;https://cdn.jsdelivr.net/gh/Project-Noonnu/noonfonts_2107@1.1/Pretendard-Regular.woff&quot; face=&quot;Pretendard&quot;&gt;&lt;br&gt;&lt;/font&gt;&lt;/div&gt;&lt;div&gt;&lt;font data-font-src=&quot;https://cdn.jsdelivr.net/gh/Project-Noonnu/noonfonts_2107@1.1/Pretendard-Regular.woff&quot; face=&quot;Pretendard&quot;&gt;&lt;br&gt;&lt;/font&gt;&lt;/div&gt;&lt;font data-font-src=&quot;https://cdn.jsdelivr.net/gh/Project-Noonnu/noonfonts_2107@1.1/Pretendard-Regular.woff&quot; face=&quot;Pretendard&quot;&gt;P-type Substrate&lt;/font&gt;" style="rounded=0;whiteSpace=wrap;html=1;fillColor=#dae8fc;strokeColor=#6c8ebf;" parent="1" vertex="1">
          <mxGeometry x="200" y="240" width="400" height="160" as="geometry" />
        </mxCell>
        <mxCell id="xR2DWlL20hdml4r3ErCJ-4" value="N+" style="shape=or;whiteSpace=wrap;html=1;fillColor=#f8cecc;strokeColor=#b85450;rotation=90;horizontal=0;fontFamily=Pretendard;fontSource=https%3A%2F%2Fcdn.jsdelivr.net%2Fgh%2FProject-Noonnu%2Fnoonfonts_2107%401.1%2FPretendard-Regular.woff;" parent="1" vertex="1">
          <mxGeometry x="250" y="230" width="60" height="80" as="geometry" />
        </mxCell>
        <mxCell id="xR2DWlL20hdml4r3ErCJ-5" value="N+" style="shape=or;whiteSpace=wrap;html=1;fillColor=#f8cecc;strokeColor=#b85450;rotation=90;horizontal=0;fontFamily=Pretendard;fontSource=https%3A%2F%2Fcdn.jsdelivr.net%2Fgh%2FProject-Noonnu%2Fnoonfonts_2107%401.1%2FPretendard-Regular.woff;" parent="1" vertex="1">
          <mxGeometry x="490" y="230" width="60" height="80" as="geometry" />
        </mxCell>
        <mxCell id="xR2DWlL20hdml4r3ErCJ-6" value="" style="rounded=0;whiteSpace=wrap;html=1;fillColor=#f5f5f5;fontColor=#333333;strokeColor=#666666;" parent="1" vertex="1">
          <mxGeometry x="200" y="220" width="60" height="20" as="geometry" />
        </mxCell>
        <mxCell id="xR2DWlL20hdml4r3ErCJ-8" value="Tunnel Oxide" style="rounded=0;whiteSpace=wrap;html=1;fillColor=#f5f5f5;fontColor=#333333;strokeColor=#666666;fontFamily=Pretendard;fontSource=https%3A%2F%2Fcdn.jsdelivr.net%2Fgh%2FProject-Noonnu%2Fnoonfonts_2107%401.1%2FPretendard-Regular.woff;" parent="1" vertex="1">
          <mxGeometry x="300" y="220" width="200" height="20" as="geometry" />
        </mxCell>
        <mxCell id="xR2DWlL20hdml4r3ErCJ-9" value="" style="rounded=0;whiteSpace=wrap;html=1;fillColor=#f5f5f5;fontColor=#333333;strokeColor=#666666;" parent="1" vertex="1">
          <mxGeometry x="540" y="220" width="60" height="20" as="geometry" />
        </mxCell>
        <mxCell id="xR2DWlL20hdml4r3ErCJ-13" value="" style="shape=waypoint;sketch=0;fillStyle=solid;size=6;pointerEvents=1;points=[];fillColor=none;resizable=0;rotatable=0;perimeter=centerPerimeter;snapToPoint=1;" parent="1" vertex="1">
          <mxGeometry x="390" y="430" width="20" height="20" as="geometry" />
        </mxCell>
        <mxCell id="xR2DWlL20hdml4r3ErCJ-14" value="" style="endArrow=none;html=1;rounded=0;" parent="1" source="xR2DWlL20hdml4r3ErCJ-15" edge="1">
          <mxGeometry width="50" height="50" relative="1" as="geometry">
            <mxPoint x="279.65999999999997" y="240" as="sourcePoint" />
            <mxPoint x="200" y="160" as="targetPoint" />
            <Array as="points" />
          </mxGeometry>
        </mxCell>
        <mxCell id="xR2DWlL20hdml4r3ErCJ-16" value="" style="endArrow=none;html=1;rounded=0;" parent="1" target="xR2DWlL20hdml4r3ErCJ-15" edge="1">
          <mxGeometry width="50" height="50" relative="1" as="geometry">
            <mxPoint x="279.65999999999997" y="240" as="sourcePoint" />
            <mxPoint x="200" y="160" as="targetPoint" />
            <Array as="points">
              <mxPoint x="280" y="160" />
            </Array>
          </mxGeometry>
        </mxCell>
        <mxCell id="xR2DWlL20hdml4r3ErCJ-24" value="Source" style="edgeLabel;html=1;align=center;verticalAlign=middle;resizable=0;points=[];fontFamily=Pretendard;fontSource=https%3A%2F%2Fcdn.jsdelivr.net%2Fgh%2FProject-Noonnu%2Fnoonfonts_2107%401.1%2FPretendard-Regular.woff;" parent="xR2DWlL20hdml4r3ErCJ-16" vertex="1" connectable="0">
          <mxGeometry x="0.5777" y="-2" relative="1" as="geometry">
            <mxPoint x="6" y="2" as="offset" />
          </mxGeometry>
        </mxCell>
        <mxCell id="xR2DWlL20hdml4r3ErCJ-15" value="" style="shape=waypoint;sketch=0;fillStyle=solid;size=6;pointerEvents=1;points=[];fillColor=none;resizable=0;rotatable=0;perimeter=centerPerimeter;snapToPoint=1;" parent="1" vertex="1">
          <mxGeometry x="190" y="150" width="20" height="20" as="geometry" />
        </mxCell>
        <mxCell id="xR2DWlL20hdml4r3ErCJ-21" value="" style="endArrow=none;html=1;rounded=0;" parent="1" target="xR2DWlL20hdml4r3ErCJ-22" edge="1">
          <mxGeometry width="50" height="50" relative="1" as="geometry">
            <mxPoint x="520" y="240" as="sourcePoint" />
            <mxPoint x="570" y="160" as="targetPoint" />
            <Array as="points">
              <mxPoint x="520.34" y="160" />
            </Array>
          </mxGeometry>
        </mxCell>
        <mxCell id="xR2DWlL20hdml4r3ErCJ-25" value="Drain" style="edgeLabel;html=1;align=center;verticalAlign=middle;resizable=0;points=[];fontFamily=Pretendard;fontSource=https%3A%2F%2Fcdn.jsdelivr.net%2Fgh%2FProject-Noonnu%2Fnoonfonts_2107%401.1%2FPretendard-Regular.woff;" parent="xR2DWlL20hdml4r3ErCJ-21" vertex="1" connectable="0">
          <mxGeometry x="0.5161" y="-1" relative="1" as="geometry">
            <mxPoint y="-1" as="offset" />
          </mxGeometry>
        </mxCell>
        <mxCell id="xR2DWlL20hdml4r3ErCJ-22" value="" style="shape=waypoint;sketch=0;fillStyle=solid;size=6;pointerEvents=1;points=[];fillColor=none;resizable=0;rotatable=0;perimeter=centerPerimeter;snapToPoint=1;" parent="1" vertex="1">
          <mxGeometry x="590" y="150" width="20" height="20" as="geometry" />
        </mxCell>
        <mxCell id="xR2DWlL20hdml4r3ErCJ-26" value="Polysilicon Floating Gate" style="rounded=0;whiteSpace=wrap;html=1;fillColor=#fff2cc;strokeColor=#d6b656;fontFamily=Pretendard;fontSource=https%3A%2F%2Fcdn.jsdelivr.net%2Fgh%2FProject-Noonnu%2Fnoonfonts_2107%401.1%2FPretendard-Regular.woff;" parent="1" vertex="1">
          <mxGeometry x="310" y="200" width="180" height="20" as="geometry" />
        </mxCell>
        <mxCell id="xR2DWlL20hdml4r3ErCJ-27" value="Oxide-Nitride-Oxide Dielectric" style="rounded=0;whiteSpace=wrap;html=1;fillColor=#e1d5e7;strokeColor=#9673a6;fontFamily=Pretendard;fontSource=https%3A%2F%2Fcdn.jsdelivr.net%2Fgh%2FProject-Noonnu%2Fnoonfonts_2107%401.1%2FPretendard-Regular.woff;" parent="1" vertex="1">
          <mxGeometry x="310" y="180" width="180" height="20" as="geometry" />
        </mxCell>
        <mxCell id="xR2DWlL20hdml4r3ErCJ-28" value="&amp;nbsp;Polysilicon Control Gate" style="rounded=0;whiteSpace=wrap;html=1;fillColor=#d5e8d4;strokeColor=#82b366;fontFamily=Pretendard;fontSource=https%3A%2F%2Fcdn.jsdelivr.net%2Fgh%2FProject-Noonnu%2Fnoonfonts_2107%401.1%2FPretendard-Regular.woff;" parent="1" vertex="1">
          <mxGeometry x="310" y="160" width="180" height="20" as="geometry" />
        </mxCell>
        <mxCell id="xR2DWlL20hdml4r3ErCJ-29" value="" style="endArrow=none;html=1;rounded=0;" parent="1" source="xR2DWlL20hdml4r3ErCJ-30" edge="1">
          <mxGeometry width="50" height="50" relative="1" as="geometry">
            <mxPoint x="399.66" y="160" as="sourcePoint" />
            <mxPoint x="399.66" y="120" as="targetPoint" />
          </mxGeometry>
        </mxCell>
        <mxCell id="xR2DWlL20hdml4r3ErCJ-31" value="" style="endArrow=none;html=1;rounded=0;" parent="1" target="xR2DWlL20hdml4r3ErCJ-30" edge="1">
          <mxGeometry width="50" height="50" relative="1" as="geometry">
            <mxPoint x="399.66" y="160" as="sourcePoint" />
            <mxPoint x="399.66" y="120" as="targetPoint" />
          </mxGeometry>
        </mxCell>
        <mxCell id="xR2DWlL20hdml4r3ErCJ-32" value="Control" style="edgeLabel;html=1;align=center;verticalAlign=middle;resizable=0;points=[];fontFamily=Pretendard;fontSource=https%3A%2F%2Fcdn.jsdelivr.net%2Fgh%2FProject-Noonnu%2Fnoonfonts_2107%401.1%2FPretendard-Regular.woff;" parent="xR2DWlL20hdml4r3ErCJ-31" vertex="1" connectable="0">
          <mxGeometry x="-0.0014" y="1" relative="1" as="geometry">
            <mxPoint as="offset" />
          </mxGeometry>
        </mxCell>
        <mxCell id="xR2DWlL20hdml4r3ErCJ-30" value="" style="shape=waypoint;sketch=0;fillStyle=solid;size=6;pointerEvents=1;points=[];fillColor=none;resizable=0;rotatable=0;perimeter=centerPerimeter;snapToPoint=1;" parent="1" vertex="1">
          <mxGeometry x="390" y="110" width="20" height="20" as="geometry" />
        </mxCell>
        <mxCell id="8MPNYBzgm8dfpGTS9pnr-4" value="" style="endArrow=none;html=1;rounded=0;entryX=0.5;entryY=1;entryDx=0;entryDy=0;" edge="1" parent="1" target="xR2DWlL20hdml4r3ErCJ-1">
          <mxGeometry width="50" height="50" relative="1" as="geometry">
            <mxPoint x="400" y="440" as="sourcePoint" />
            <mxPoint x="440" y="420" as="targetPoint" />
          </mxGeometry>
        </mxCell>
        <mxCell id="8MPNYBzgm8dfpGTS9pnr-5" value="Body" style="edgeLabel;html=1;align=center;verticalAlign=middle;resizable=0;points=[];fontFamily=Pretendard;fontSource=https%3A%2F%2Fcdn.jsdelivr.net%2Fgh%2FProject-Noonnu%2Fnoonfonts_2107%401.1%2FPretendard-Regular.woff;" vertex="1" connectable="0" parent="8MPNYBzgm8dfpGTS9pnr-4">
          <mxGeometry x="0.2046" relative="1" as="geometry">
            <mxPoint y="3" as="offset" />
          </mxGeometry>
        </mxCell>
      </root>
    </mxGraphModel>
  </diagram>
</mxfile>
